<svg id="Flat" height="512" viewBox="0 0 64 64" width="512" xmlns="http://www.w3.org/2000/svg"><path d="m7 24h22v12h-22z" fill="#039791" transform="matrix(0 -1 1 0 -12 48)"/><g fill="#82d1df"><circle cx="18" cy="30" r="3"/><path d="m12 38a3 3 0 0 1 3 3h-3z"/><path d="m12 22a3 3 0 0 0 3-3h-3z"/><path d="m24 22a3 3 0 0 1 -3-3h3z"/><path d="m21 41a3 3 0 0 1 3-3v3z"/></g><path d="m29 37h5v8h-5z" fill="#ccc"/><path d="m48 40h-19v-25h24v27.5a2.5 2.5 0 0 0 -2.5-2.5z" fill="#cc4b31"/><path d="m50.5 45h-21.5l.658-.329a2.426 2.426 0 0 0 1.342-2.171 2.426 2.426 0 0 0 -1.342-2.171l-.658-.329h21.5a2.5 2.5 0 0 1 2.5 2.5 2.5 2.5 0 0 1 -2.5 2.5z" fill="#b3b3b3"/><path d="m33 28h16v8h-16z" fill="#82d1df"/><path d="m33 22h15v2h-15z" fill="#29485a"/><path d="m33 18h13v2h-13z" fill="#29485a"/><path d="m58 4v8.968l.063.253a31.9 31.9 0 0 1 .937 7.673v6.686a5.039 5.039 0 0 1 -.708 2.575l-5.292 8.891v-12.015l-5.524 5.569a2.079 2.079 0 0 1 -2.952 0l-.048-.049a2.113 2.113 0 0 1 0-2.976l4.524-4.56a7.3 7.3 0 0 1 -4-6.525v-.024a6.468 6.468 0 0 1 .673-2.874l1.327-2.674v-8.918" fill="#eacbc6"/><path d="m7 62v-9l-.055-.221a31.617 31.617 0 0 1 -.945-7.679v-6.715a5 5 0 0 1 .713-2.573l5.287-8.812v12l5.5-5.5a2.122 2.122 0 0 1 3 0 2.122 2.122 0 0 1 0 3l-4.5 4.5a7.237 7.237 0 0 1 4 6.472 6.479 6.479 0 0 1 -.683 2.895l-1.317 2.633v9" fill="#db9c94"/></svg>